<svg width="61" height="59" viewBox="0 0 61 59" fill="none" xmlns="http://www.w3.org/2000/svg">
<rect width="14.8235" height="10.1818" rx="5" transform="matrix(1 0 0 -1 23.9116 58.5)" fill="#1F6392"/>
<path d="M58.4998 27.9546C58.4998 36.8495 58.4998 42.2476 58.4998 50.4068C58.4998 52.0637 57.1567 53.4091 55.4998 53.4091H33.7939" stroke="#1F6392" stroke-width="3"/>
<path d="M58.5 31.3485C58.5 27.56 57.7758 23.8087 56.3686 20.3086C54.9615 16.8086 52.899 13.6284 50.299 10.9495C47.699 8.27069 44.6123 6.14573 41.2151 4.69596C37.818 3.24619 34.177 2.5 30.5 2.5C26.823 2.5 23.182 3.24619 19.7849 4.69596C16.3877 6.14573 13.301 8.2707 10.701 10.9495C8.10097 13.6284 6.0385 16.8086 4.63137 20.3086C3.22424 23.8087 2.5 27.56 2.5 31.3485" stroke="#1F6392" stroke-width="5" stroke-linecap="round"/>
<path d="M38.8749 39.4599C39.8159 40.7528 41.328 41.5671 42.9265 41.5257C45.0599 41.4705 47.3121 41.1784 48.6175 39.8334C50.4708 37.9239 50.2641 34.0489 50.2641 31.3485C50.2641 28.6481 50.4708 24.7731 48.6175 22.8637C47.0133 21.2109 43.9795 21.1479 41.4932 21.1609C40.769 21.1646 40.0622 21.3862 39.4653 21.7963C38.4928 22.4644 37.9116 23.5687 37.9116 24.7487V31.3485V36.5095C37.9116 37.5668 38.2527 38.6051 38.8749 39.4599Z" fill="#1F6392"/>
<path d="M38.8995 39.4938C39.8326 40.7758 41.2973 41.5639 42.8522 41.5276C45.0075 41.4772 47.2969 41.194 48.6175 39.8334C50.4708 37.9239 50.2641 34.0489 50.2641 31.3485C50.2641 28.6481 50.4708 24.7731 48.6175 22.8637C47.0049 21.2023 43.9479 21.1473 41.4544 21.1611C40.7548 21.1649 40.0712 21.3801 39.4891 21.78C38.5036 22.457 37.9116 23.5967 37.9116 24.8171V31.3485V36.4398C37.9116 37.5411 38.2583 38.6127 38.8995 39.4938Z" fill="#1F6392"/>
<path d="M22.1315 39.467C21.1905 40.7599 19.6784 41.5742 18.0799 41.5328C15.9464 41.4776 13.6943 41.1854 12.3888 39.8405C10.5355 37.931 10.7422 34.056 10.7422 31.3556C10.7422 28.6552 10.5356 24.7802 12.3889 22.8708C13.993 21.218 17.0268 21.155 19.5132 21.1679C20.2374 21.1717 20.9441 21.3933 21.541 21.8034C22.5136 22.4715 23.0947 23.5758 23.0947 24.7558V31.3556V36.5166C23.0947 37.5739 22.7536 38.6121 22.1315 39.467Z" fill="#1F6392"/>
<path d="M22.1068 39.5009C21.1737 40.7829 19.709 41.571 18.1541 41.5347C15.9988 41.4843 13.7094 41.201 12.3888 39.8405C10.5355 37.931 10.7422 34.056 10.7422 31.3556C10.7422 28.6552 10.5356 24.7802 12.3889 22.8708C14.0014 21.2094 17.0584 21.1544 19.552 21.1681C20.2515 21.172 20.9352 21.3872 21.5172 21.787C22.5028 22.4641 23.0947 23.6038 23.0947 24.8242V31.3556V36.4469C23.0947 37.5482 22.7481 38.6198 22.1068 39.5009Z" fill="#1F6392"/>
</svg>
